<?xml version="1.0" standalone="no"?><!DOCTYPE svg PUBLIC "-//W3C//DTD SVG 1.1//EN" "http://www.w3.org/Graphics/SVG/1.1/DTD/svg11.dtd"><svg t="1599669798945" class="icon" viewBox="0 0 1024 1024" version="1.1" xmlns="http://www.w3.org/2000/svg" p-id="6198" xmlns:xlink="http://www.w3.org/1999/xlink" width="200" height="200"><defs><style type="text/css"></style></defs><path d="M256 296.96l286.72-153.6 266.24 163.84 10.24 337.92-40.96 81.92-143.36 122.88-102.4 51.2-133.12-71.68-122.88-122.88-20.48-112.64V296.96z" fill="#8BE1AA" p-id="6199"></path><path d="M491.52 358.4h92.16v112.64l112.64 10.24v92.16H593.92l-10.24 112.64h-92.16l-10.24-102.4-102.4-10.24V471.04h102.4l10.24-112.64z" fill="#FFFFFF" p-id="6200"></path><path d="M568.7296 705.3312h-68.096a34.816 34.816 0 0 1-34.816-34.816v-92.16A15.36 15.36 0 0 1 481.28 563.2a15.36 15.36 0 0 1 15.36 15.36v92.16a4.096 4.096 0 0 0 4.096 4.096h68.096a4.096 4.096 0 0 0 4.096-4.096v-92.16a15.36 15.36 0 0 1 15.36-15.36 15.36 15.36 0 0 1 15.36 15.36v92.16a34.816 34.816 0 0 1-34.9184 34.6112zM481.28 485.9904a15.36 15.36 0 0 1-15.36-15.36V378.88a34.816 34.816 0 0 1 34.816-34.816h68.096a34.816 34.816 0 0 1 34.816 34.816v89.1904a15.36 15.36 0 0 1-30.72 0V378.88a4.096 4.096 0 0 0-4.096-4.096h-68.3008a4.096 4.096 0 0 0-4.096 4.096v92.16A15.36 15.36 0 0 1 481.28 485.9904z" fill="#686C79" p-id="6201"></path><path d="M680.5504 593.92h-92.16a15.36 15.36 0 0 1 0-30.72h92.16a4.096 4.096 0 0 0 4.096-4.096v-68.5056a4.096 4.096 0 0 0-4.096-4.096h-92.16a15.36 15.36 0 0 1 0-30.72h92.16a34.816 34.816 0 0 1 34.816 34.816v68.096a34.816 34.816 0 0 1-34.816 35.2256zM481.28 593.92h-92.16a34.816 34.816 0 0 1-34.816-34.816v-68.5056a34.816 34.816 0 0 1 34.816-34.816h92.16a15.36 15.36 0 0 1 0 30.72h-92.16a4.096 4.096 0 0 0-4.096 4.096v68.096a4.096 4.096 0 0 0 4.096 4.096h92.16a15.36 15.36 0 0 1 0 30.72z" fill="#686C79" p-id="6202"></path><path d="M534.6304 1002.9056c-7.68 0-100.2496-45.8752-180.736-104.96C235.52 811.3152 176.0256 724.2752 176.0256 639.488V252.5184a15.36 15.36 0 0 1 8.2944-13.5168L532.48 48.2304a15.36 15.36 0 0 1 14.9504 0l337.92 190.7712a15.36 15.36 0 0 1 7.7824 13.4144v387.072c0 199.7824-337.92 355.5328-352.256 361.984a15.36 15.36 0 0 1-6.2464 1.4336z m-327.68-741.2736v377.856c0 166.2976 281.7024 308.8384 327.68 331.0592 46.1824-22.2208 327.68-164.864 327.68-331.0592V261.5296l-322.56-182.272z" fill="#686C79" p-id="6203"></path><path d="M534.6304 919.6544c-12.288 0-296.96-136.3968-296.96-300.8512v-317.44a15.36 15.36 0 0 1 8.0896-13.4144l285.7984-156.4672a15.36 15.36 0 0 1 14.9504 0l277.1968 156.5696a15.36 15.36 0 0 1 7.7824 13.4144v317.44c0 165.4784-278.528 293.9904-290.5088 299.3152a15.36 15.36 0 0 1-6.3488 1.4336z m-266.24-609.0752v308.224c0 133.12 225.28 248.5248 266.24 268.4928 40.96-19.8656 266.24-135.168 266.24-268.4928V310.4768L538.8288 162.5088z" fill="#686C79" p-id="6204"></path></svg>